<svg width="131.000000" height="40.000000" viewBox="0 0 131 40" fill="none" xmlns="http://www.w3.org/2000/svg" xmlns:xlink="http://www.w3.org/1999/xlink">
	<desc>
			Created with Pixso.
	</desc>
	<defs>
		<clipPath id="clip4_364">
			<rect id="logo" width="131.000000" height="40.000000" fill="white" fill-opacity="0"/>
		</clipPath>
	</defs>
	<rect id="logo" width="131.000000" height="40.000000" fill="#FFFFFF" fill-opacity="0"/>
	<g clip-path="url(#clip4_364)">
		<path id="Vector" d="M0.92 20.11C0.92 30.94 9.7 39.88 20.33 39.88C30.95 39.88 39.73 30.94 39.73 20.11C39.73 9.29 30.95 0.47 20.33 0.47C9.7 0.47 0.92 9.29 0.92 20.11ZM27.49 29.29C22.98 26.47 17.21 25.76 10.51 27.29C8.89 27.52 8.66 25.17 10.05 24.94C17.44 23.17 23.68 24 28.76 27.17C30.03 28 28.76 30 27.49 29.29ZM29.45 24C24.25 20.7 16.28 19.76 10.16 21.64C8.2 22.23 7.5 19.17 9.35 18.7C16.4 16.58 25.06 17.64 31.07 21.41C32.69 22.47 31.07 25.05 29.45 24ZM9.24 15.64C7.27 16.35 6 12.94 8.2 12.11C15.01 10 26.56 10.35 33.73 14.7C35.69 15.76 33.84 19.05 31.76 17.88C25.53 14.11 15.13 13.76 9.24 15.64ZM53.02 26.35C51.05 26.35 49.21 25.64 47.59 24C47.47 24 47.47 24.11 47.47 24.11L45.63 26.35C45.51 26.47 45.51 26.58 45.63 26.7C47.7 28.58 50.25 29.52 53.02 29.52C56.95 29.52 59.37 27.29 59.37 24C59.37 21.17 57.64 19.64 53.6 18.58C50.25 17.76 49.67 17.17 49.67 16C49.67 14.82 50.82 14.11 52.33 14.11C53.83 14.11 55.21 14.7 56.83 15.88C56.83 15.88 56.95 16 57.06 16C57.18 16 57.18 15.88 57.18 15.88L58.79 13.52C58.91 13.41 58.91 13.41 58.79 13.29C56.95 11.76 54.75 10.94 52.33 10.94C48.74 10.94 46.2 13.17 46.2 16.35C46.2 19.76 48.51 20.82 52.21 21.76C55.44 22.47 55.91 23.17 55.91 24.35C55.91 25.64 54.75 26.35 53.02 26.35ZM63.99 17.29L63.99 15.76C63.99 15.64 63.88 15.52 63.76 15.52L60.76 15.52C60.64 15.52 60.53 15.64 60.53 15.76L60.53 33.05C60.53 33.17 60.64 33.29 60.76 33.29L63.76 33.29C63.88 33.29 63.99 33.17 63.99 33.05L63.99 27.64C65.15 28.94 66.42 29.52 68.15 29.52C71.27 29.52 74.39 27.05 74.39 22.35C74.39 17.64 71.27 15.29 68.15 15.29C66.42 15.29 65.15 15.88 63.99 17.29ZM67.46 26.47C65.38 26.47 63.88 24.7 63.88 22.35C63.88 20 65.38 18.35 67.46 18.35C69.54 18.35 70.92 20 70.92 22.35C70.92 24.7 69.54 26.47 67.46 26.47ZM75.31 22.47C75.31 26.47 78.43 29.52 82.48 29.52C86.52 29.52 89.64 26.35 89.64 22.35C89.64 18.35 86.64 15.29 82.59 15.29C78.55 15.29 75.31 18.47 75.31 22.47ZM78.78 22.35C78.78 20 80.28 18.35 82.48 18.35C84.67 18.35 86.29 20.11 86.29 22.47C86.29 24.82 84.79 26.47 82.59 26.47C80.4 26.47 78.78 24.7 78.78 22.35ZM94.95 15.52L94.95 12.11C94.95 12 94.95 11.88 94.84 11.88L91.83 11.88C91.72 11.88 91.6 12 91.6 12.11L91.6 15.52L90.1 15.52C89.99 15.52 89.87 15.64 89.87 15.76L89.87 18.35C89.87 18.47 89.99 18.58 90.1 18.58L91.6 18.58L91.6 25.41C91.6 28.11 92.87 29.52 95.53 29.52C96.57 29.52 97.61 29.29 98.42 28.82C98.53 28.82 98.53 28.7 98.53 28.58L98.53 26.11C98.53 26 98.53 25.88 98.42 25.88L98.19 25.88C97.61 26.23 96.92 26.35 96.34 26.35C95.41 26.35 94.95 25.88 94.95 24.94L94.95 18.58L98.42 18.58C98.53 18.58 98.65 18.47 98.65 18.35L98.65 15.76C98.65 15.64 98.53 15.52 98.42 15.52L94.95 15.52ZM109.86 15.17C109.86 13.88 110.32 13.41 111.36 13.41C111.93 13.41 112.51 13.41 113.09 13.64L113.21 13.64C113.21 13.64 113.32 13.52 113.32 13.41L113.32 10.94C113.32 10.82 113.32 10.7 113.21 10.7C112.63 10.47 111.82 10.35 110.66 10.35C107.89 10.35 106.51 12 106.51 14.94L106.51 15.52L105 15.52C104.89 15.52 104.77 15.64 104.77 15.76L104.77 18.35C104.77 18.47 104.89 18.58 105 18.58L106.51 18.58L106.51 29.05C106.51 29.17 106.62 29.29 106.74 29.29L109.74 29.29C109.86 29.29 109.86 29.17 109.86 29.05L109.86 18.58L112.74 18.58L117.02 29.05C116.56 30.11 116.09 30.35 115.4 30.35C114.82 30.35 114.25 30.23 113.67 29.88L113.55 29.88L113.44 30L112.4 32.23C112.4 32.35 112.4 32.58 112.51 32.58C113.55 33.17 114.48 33.41 115.63 33.41C117.83 33.41 119.1 32.35 120.14 29.52L125.33 15.88L125.33 15.64C125.33 15.52 125.22 15.52 125.1 15.52L121.98 15.52C121.87 15.52 121.87 15.64 121.87 15.76L118.63 24.94L115.17 15.76C115.17 15.64 115.05 15.52 114.94 15.52L109.86 15.52L109.86 15.17ZM100.27 15.52C100.15 15.52 100.04 15.64 100.04 15.76L100.04 29.05C100.04 29.17 100.15 29.29 100.27 29.29L103.27 29.29C103.39 29.29 103.39 29.17 103.39 29.05L103.39 15.76C103.39 15.64 103.39 15.52 103.27 15.52L100.27 15.52ZM99.57 11.64C99.57 12.82 100.61 13.88 101.77 13.88C102.92 13.88 103.85 12.82 103.85 11.64C103.85 10.47 102.92 9.52 101.77 9.52C100.61 9.52 99.57 10.47 99.57 11.64ZM127.88 19.76C129.03 19.76 130.07 18.82 130.07 17.64C130.07 16.47 129.03 15.52 127.88 15.52C126.72 15.52 125.8 16.47 125.8 17.64C125.8 18.82 126.72 19.76 127.88 19.76ZM127.88 15.76C128.92 15.76 129.84 16.58 129.84 17.64C129.84 18.7 128.92 19.52 127.88 19.52C126.84 19.52 126.03 18.7 126.03 17.64C126.03 16.58 126.84 15.76 127.88 15.76ZM128.34 17.88C128.69 17.76 128.92 17.52 128.92 17.17C128.92 16.7 128.45 16.47 127.99 16.47L127.07 16.47L127.07 18.7L127.53 18.7L127.53 18L127.99 18L128.45 18.7L129.03 18.7L128.34 17.88ZM127.99 16.82C128.22 16.82 128.45 16.94 128.45 17.17C128.45 17.41 128.22 17.52 127.99 17.52L127.53 17.52L127.53 16.82L127.99 16.82Z" fill="#FFFFFF" fill-opacity="1.000000" fill-rule="nonzero"/>
	</g>
</svg>
